<?xml version="1.0" encoding="utf-8"?>
<!-- Generator: Adobe Illustrator 24.3.0, SVG Export Plug-In . SVG Version: 6.00 Build 0)  -->
<svg version="1.1" id="Layer_1" xmlns="http://www.w3.org/2000/svg" xmlns:xlink="http://www.w3.org/1999/xlink" x="0px" y="0px"
	 viewBox="0 0 64 64" style="enable-background:new 0 0 64 64;" xml:space="preserve">
<style type="text/css">
	.st0{fill:#1A1A1A;}
</style>
<path class="st0" d="M29,62c14.8877,0,27-12.1123,27-27c0-7.0849-2.74707-13.53748-7.22693-18.35901L60,5.41406V17
	c0,0.55225,0.44727,1,1,1s1-0.44775,1-1V3c0-0.13013-0.02649-0.25977-0.07703-0.3819
	c-0.10132-0.24475-0.29614-0.43964-0.54089-0.54102C61.25989,2.02655,61.13019,2,61,2H47c-0.55273,0-1,0.44775-1,1s0.44727,1,1,1
	h11.58594L47.35901,15.22693C42.53748,10.74707,36.0849,8,29,8C14.1123,8,2,20.1123,2,35S14.1123,62,29,62z M29,10
	c13.78516,0,25,11.21484,25,25S42.78516,60,29,60S4,48.78516,4,35S15.21484,10,29,10z"/>
</svg>
