<?xml version="1.0" encoding="utf-8"?>
<!-- Generator: Adobe Illustrator 24.3.0, SVG Export Plug-In . SVG Version: 6.00 Build 0)  -->
<svg version="1.1" id="Layer_1" xmlns="http://www.w3.org/2000/svg" xmlns:xlink="http://www.w3.org/1999/xlink" x="0px" y="0px"
	 viewBox="0 0 64 64" style="enable-background:new 0 0 64 64;" xml:space="preserve">
<style type="text/css">
	.st0{fill:#1A1A1A;}
</style>
<path class="st0" d="M33,17.02533V4.91449l5.21094,6.69928C38.4082,11.86719,38.70312,12,39.00098,12
	c0.21387,0,0.43066-0.06885,0.61328-0.21045c0.43555-0.33936,0.51465-0.96777,0.1748-1.40332l-7-9
	c-0.01062-0.01367-0.02832-0.01788-0.03961-0.03076C32.5661,1.14221,32.30359,1,32,1s-0.5661,0.14227-0.74945,0.35547
	c-0.01129,0.01288-0.02899,0.01709-0.03961,0.03076l-7,9c-0.33984,0.43555-0.26074,1.06396,0.1748,1.40332
	c0.4375,0.33936,1.06445,0.26025,1.40332-0.17578L31,4.91449v12.11084C18.77985,17.55115,9,27.6532,9,40
	c0,12.68262,10.31738,23,23,23s23-10.31738,23-23C55,27.6532,45.22015,17.55115,33,17.02533z M32,61c-11.5791,0-21-9.4209-21-21
	c0-11.57959,9.4209-21,21-21s21,9.42041,21,21C53,51.5791,43.5791,61,32,61z"/>
<path class="st0" d="M32,33c-3.85938,0-7,3.14062-7,7s3.14062,7,7,7s7-3.14062,7-7S35.85938,33,32,33z M32,45
	c-2.75684,0-5-2.24316-5-5s2.24316-5,5-5s5,2.24316,5,5S34.75684,45,32,45z"/>
</svg>
