<?xml version="1.0" encoding="utf-8"?>
<!-- Generator: Adobe Illustrator 24.2.3, SVG Export Plug-In . SVG Version: 6.00 Build 0)  -->
<svg version="1.1" id="Layer_1" xmlns="http://www.w3.org/2000/svg" xmlns:xlink="http://www.w3.org/1999/xlink" x="0px" y="0px"
	 viewBox="0 0 64 64" style="enable-background:new 0 0 64 64;" xml:space="preserve">
<style type="text/css">
	.st0{fill:#1A1A1A;}
</style>
<g>
	<path class="st0" d="M50,42c-3.27295,0-6.17462,1.58771-8,4.02557V15c0-7.16797-5.83154-13-13-13S16,7.83203,16,15v8.62476
		C14.00287,15.98749,10.55127,8.73505,5.7998,2.40039C5.46973,1.95801,4.84375,1.86914,4.3999,2.2002
		C3.95801,2.53125,3.86865,3.1582,4.2002,3.59961C11.80957,13.74609,16,26.31836,16,39v14c0,0.55273,0.44775,1,1,1s1-0.44727,1-1V39
		V15c0-6.06543,4.93457-11,11-11s11,4.93457,11,11v37v1v0.9082C40,57.26758,37.26709,60,33.9082,60H25c-0.55225,0-1,0.44727-1,1
		s0.44775,1,1,1h8.9082c3.35547,0,6.2392-2.05334,7.46368-4.96912C43.10858,59.99744,46.32117,62,50,62c5.51416,0,10-4.48633,10-10
		S55.51416,42,50,42z M50,60c-4.41113,0-8-3.58887-8-8s3.58887-8,8-8s8,3.58887,8,8S54.41113,60,50,60z"/>
</g>
</svg>
