<?xml version="1.0" encoding="utf-8"?>
<!-- Generator: Adobe Illustrator 24.3.0, SVG Export Plug-In . SVG Version: 6.00 Build 0)  -->
<svg version="1.1" id="Layer_1" xmlns="http://www.w3.org/2000/svg" xmlns:xlink="http://www.w3.org/1999/xlink" x="0px" y="0px"
	 viewBox="0 0 64 64" style="enable-background:new 0 0 64 64;" xml:space="preserve">
<style type="text/css">
	.st0{fill:#1A1A1A;}
</style>
<path class="st0" d="M58,45H43V23c0-0.55225-0.44775-1-1-1s-1,0.44775-1,1v22H21.16895
	c5.44531-3.26953,9.43652-9.57422,11.58398-15.24072c2.52441-6.65918,3.69238-16.00732-0.60059-22.27197
	C29.36816,3.42529,24.78418,1,19.89014,1C11.67969,1,5,7.729,5,16c0,0.55225,0.44775,1,1,1s1-0.44775,1-1
	C7,8.83154,12.78271,3,19.89014,3c4.1709,0,8.2373,2.15283,10.61279,5.61816c3.86084,5.63477,2.61768,14.52832,0.37988,20.43213
	c-2.45703,6.48389-7.8999,14.55615-15.15186,15.96826c-0.50586,0.09863-0.81494,0.56445-0.76562,1.07715
	C15.01514,46.6084,15.48486,47,16,47h25v15c0,0.55273,0.44775,1,1,1s1-0.44727,1-1V47h15c0.55225,0,1-0.44727,1-1S58.55225,45,58,45
	z"/>
</svg>
