<?xml version="1.0" encoding="utf-8"?>
<!-- Generator: Adobe Illustrator 24.2.3, SVG Export Plug-In . SVG Version: 6.00 Build 0)  -->
<svg version="1.1" id="Layer_1" xmlns="http://www.w3.org/2000/svg" xmlns:xlink="http://www.w3.org/1999/xlink" x="0px" y="0px"
	 viewBox="0 0 64 64" style="enable-background:new 0 0 64 64;" xml:space="preserve">
<style type="text/css">
	.st0{fill:#1A1A1A;}
</style>
<g>
	<path class="st0" d="M49,23c-3.47266,0-6.73633,1.35254-9.19238,3.80811C37.35254,29.2627,36,32.52734,36,36
		c0,3.47363,1.35254,6.73828,3.80762,9.19238c2.34467,2.34467,5.42883,3.66919,8.72394,3.78577
		c-13.79309,6.36072-32.63898,5.06281-44.94757-3.7887c-0.44824-0.32227-1.07324-0.2207-1.39551,0.22754
		c-0.32324,0.44824-0.2207,1.07324,0.22754,1.39551c7.63086,5.4873,17.39551,8.24121,27.08594,8.24121
		c9.38574,0,18.70117-2.58301,25.94043-7.7666c0.00342-0.00244,0.00488-0.00635,0.00824-0.00885
		c0.9884-0.5675,1.91406-1.25818,2.74176-2.08588C60.64746,42.73828,62,39.47363,62,36c0-3.47266-1.35254-6.7373-3.80762-9.19189
		C55.73633,24.35254,52.47266,23,49,23z M56.77832,43.77832C54.7002,45.85645,51.9375,47.00098,49,47.00098
		s-5.7002-1.14453-7.77832-3.22266C39.14453,41.70117,38,38.93945,38,36c0-2.93848,1.14453-5.70068,3.22168-7.77783
		C43.2998,26.14453,46.0625,25,49,25s5.7002,1.14453,7.77832,3.22217C58.85547,30.29932,60,33.06152,60,36
		C60,38.93945,58.85547,41.70117,56.77832,43.77832z"/>
	<path class="st0" d="M15,41c3.47168,0,6.73633-1.35254,9.19238-3.80762C26.64746,34.7373,28,31.47217,28,27.99951
		s-1.35254-6.7373-3.80762-9.19238c-2.34491-2.34442-5.42957-3.66852-8.72504-3.78485
		c13.7937-6.36005,32.63971-5.06342,44.94867,3.78925c0.17676,0.12695,0.38086,0.18799,0.58301,0.18799
		c0.31152,0,0.61719-0.14453,0.8125-0.41602c0.32324-0.44824,0.2207-1.07324-0.22754-1.396
		C46.56348,6.38574,23.27051,6.17725,8.55762,16.71289c-0.00342,0.00244-0.00482,0.00635-0.00818,0.00879
		c-0.9884,0.56738-1.91406,1.25787-2.74182,2.08545C3.35254,21.26221,2,24.52686,2,27.99951s1.35254,6.73779,3.80762,9.19287
		C8.26367,39.64746,11.52832,41,15,41z M7.22168,20.22119C9.2998,18.14355,12.0625,16.99951,15,16.99951
		s5.7002,1.14404,7.77832,3.22168C24.85547,22.29883,26,25.06104,26,27.99951s-1.14453,5.70068-3.22168,7.77881
		C20.7002,37.85547,17.9375,39,15,39s-5.7002-1.14453-7.77832-3.22168C5.14453,33.7002,4,30.93799,4,27.99951
		S5.14453,22.29883,7.22168,20.22119z"/>
</g>
</svg>
