<?xml version="1.0" encoding="utf-8"?>
<!-- Generator: Adobe Illustrator 24.3.0, SVG Export Plug-In . SVG Version: 6.00 Build 0)  -->
<svg version="1.1" id="Layer_1" xmlns="http://www.w3.org/2000/svg" xmlns:xlink="http://www.w3.org/1999/xlink" x="0px" y="0px"
	 viewBox="0 0 64 64" style="enable-background:new 0 0 64 64;" xml:space="preserve">
<style type="text/css">
	.st0{fill:#1A1A1A;}
</style>
<path class="st0" d="M2.78906,21.61377L8,14.91449V25c0,12.89807,10.22894,23.44794,23,23.97461V54h-5c-0.55273,0-1,0.44727-1,1
	s0.44727,1,1,1h5v6c0,0.55273,0.44727,1,1,1s1-0.44727,1-1v-6h5c0.55273,0,1-0.44727,1-1s-0.44727-1-1-1h-5v-5.02539
	C45.77106,48.44794,56,37.89807,56,25V14.91449l5.21094,6.69928C61.4082,21.86719,61.70312,22,62.00098,22
	c0.21387,0,0.43066-0.06885,0.61328-0.21045c0.43555-0.33936,0.51465-0.96777,0.1748-1.40332l-7-9
	c-0.01062-0.01367-0.02832-0.01788-0.03961-0.03076C55.5661,11.14221,55.30359,11,55,11s-0.5661,0.14227-0.74945,0.35547
	c-0.01129,0.01288-0.02899,0.01709-0.03961,0.03076l-7,9c-0.33984,0.43555-0.26074,1.06396,0.1748,1.40332
	c0.4375,0.33984,1.06543,0.25977,1.40332-0.17578L54,14.91449V25c0,11.79553-9.33173,21.44971-21,21.97461V4.91449l5.21094,6.69928
	C38.4082,11.86719,38.70312,12,39.00098,12c0.21387,0,0.43066-0.06885,0.61328-0.21045
	c0.43555-0.33936,0.51465-0.96777,0.1748-1.40332l-7-9c-0.01062-0.01367-0.02832-0.01788-0.03961-0.03076
	C32.5661,1.14221,32.30359,1,32,1s-0.5661,0.14227-0.74945,0.35547c-0.01129,0.01288-0.02899,0.01709-0.03961,0.03076l-7,9
	c-0.33984,0.43555-0.26074,1.06396,0.1748,1.40332c0.4375,0.33936,1.06445,0.26025,1.40332-0.17578L31,4.91449v42.06012
	C19.33173,46.44971,10,36.79553,10,25V14.91449l5.21094,6.69928C15.4082,21.86719,15.70312,22,16.00098,22
	c0.21387,0,0.43066-0.06885,0.61328-0.21045c0.43555-0.33936,0.51465-0.96777,0.1748-1.40332l-7-9
	c-0.01062-0.01367-0.02832-0.01788-0.03961-0.03076C9.5661,11.14221,9.30359,11,9,11s-0.5661,0.14227-0.74945,0.35547
	c-0.01129,0.01288-0.02899,0.01709-0.03961,0.03076l-7,9c-0.33984,0.43555-0.26074,1.06396,0.1748,1.40332
	C1.82324,22.12939,2.4502,22.04932,2.78906,21.61377z"/>
</svg>
