<?xml version="1.0" encoding="utf-8"?>
<!-- Generator: Adobe Illustrator 24.2.3, SVG Export Plug-In . SVG Version: 6.00 Build 0)  -->
<svg version="1.1" id="Layer_1" xmlns="http://www.w3.org/2000/svg" xmlns:xlink="http://www.w3.org/1999/xlink" x="0px" y="0px"
	 viewBox="0 0 64 64" style="enable-background:new 0 0 64 64;" xml:space="preserve">
<style type="text/css">
	.st0{fill:#1A1A1A;}
</style>
<g>
	<path class="st0" d="M59.92297,4.6181c-0.10132-0.24475-0.29614-0.43964-0.54089-0.54102C59.25989,4.02655,59.13019,4,59,4H29
		c-0.55273,0-1,0.44775-1,1s0.44727,1,1,1h27.58594L23,39.58594L12.70703,29.29297c-0.39062-0.39062-1.02344-0.39062-1.41406,0
		s-0.39062,1.02344,0,1.41406L21.58594,41L4.29297,58.29297c-0.39062,0.39062-0.39062,1.02344,0,1.41406
		C4.48828,59.90234,4.74414,60,5,60s0.51172-0.09766,0.70703-0.29297L23,42.41406l10.29297,10.29297
		C33.48828,52.90234,33.74414,53,34,53s0.51172-0.09766,0.70703-0.29297c0.39062-0.39062,0.39062-1.02344,0-1.41406L24.41406,41
		L58,7.41406V35c0,0.55273,0.44727,1,1,1s1-0.44727,1-1V5C60,4.86987,59.97351,4.74023,59.92297,4.6181z"/>
</g>
</svg>
