<?xml version="1.0" encoding="utf-8"?>
<!-- Generator: Adobe Illustrator 24.3.0, SVG Export Plug-In . SVG Version: 6.00 Build 0)  -->
<svg version="1.1" id="Layer_1" xmlns="http://www.w3.org/2000/svg" xmlns:xlink="http://www.w3.org/1999/xlink" x="0px" y="0px"
	 viewBox="0 0 64 64" style="enable-background:new 0 0 64 64;" xml:space="preserve">
<style type="text/css">
	.st0{fill:#1A1A1A;}
</style>
<path class="st0" d="M31,48.94934V55h-5c-0.55273,0-1,0.44775-1,1s0.44727,1,1,1h5v5c0,0.55225,0.44727,1,1,1s1-0.44775,1-1v-5h5
	c0.55273,0,1-0.44775,1-1s-0.44727-1-1-1h-5v-6.05066C43.56244,48.42322,52,39.69031,52,29
	c0-9.05688-6.05585-16.71619-14.328-19.16864c3.25403-1.37091,6.13373-3.89691,8.18542-7.31671
	c0.28418-0.47363,0.13086-1.08789-0.34277-1.37207c-0.47363-0.28516-1.08789-0.12988-1.37207,0.34277
	C41.31934,6.19092,36.78027,9,32,9s-9.31934-2.80908-12.14258-7.51465c-0.28418-0.47266-0.89844-0.62793-1.37207-0.34277
	c-0.47363,0.28418-0.62695,0.89844-0.34277,1.37207c2.0517,3.4198,4.9314,5.9458,8.18542,7.31671
	C18.05585,12.28381,12,19.94312,12,29C12,39.69031,20.43756,48.42322,31,48.94934z M32,11c9.9248,0,18,8.07471,18,18
	s-8.0752,18-18,18s-18-8.07471-18-18S22.0752,11,32,11z"/>
</svg>
