<?xml version="1.0" encoding="utf-8"?>
<!-- Generator: Adobe Illustrator 24.3.0, SVG Export Plug-In . SVG Version: 6.00 Build 0)  -->
<svg version="1.1" id="Layer_1" xmlns="http://www.w3.org/2000/svg" xmlns:xlink="http://www.w3.org/1999/xlink" x="0px" y="0px"
	 viewBox="0 0 64 64" style="enable-background:new 0 0 64 64;" xml:space="preserve">
<style type="text/css">
	.st0{fill:#1A1A1A;}
</style>
<path class="st0" d="M32,1C14.90674,1,1,14.90674,1,32s13.90674,31,31,31s31-13.90674,31-31S49.09326,1,32,1z M32,61
	C16.00928,61,3,47.99072,3,32S16.00928,3,32,3s29,13.00928,29,29S47.99072,61,32,61z"/>
<path class="st0" d="M32,26c-3.30859,0-6,2.69141-6,6s2.69141,6,6,6s6-2.69141,6-6S35.30859,26,32,26z M32,36
	c-2.20557,0-4-1.79443-4-4s1.79443-4,4-4s4,1.79443,4,4S34.20557,36,32,36z"/>
</svg>
