<?xml version="1.0" encoding="utf-8"?>
<!-- Generator: Adobe Illustrator 24.3.0, SVG Export Plug-In . SVG Version: 6.00 Build 0)  -->
<svg version="1.1" id="Layer_1" xmlns="http://www.w3.org/2000/svg" xmlns:xlink="http://www.w3.org/1999/xlink" x="0px" y="0px"
	 viewBox="0 0 64 64" style="enable-background:new 0 0 64 64;" xml:space="preserve">
<style type="text/css">
	.st0{fill:#1A1A1A;}
</style>
<path class="st0" d="M46.14941,49.06445l0.34961-0.43652c1.37354-1.71094,2.79346-3.48145,3.65088-5.55566
	c1.95996-4.74316,0.43262-10.57422-3.71436-14.17969c-3.90771-3.39746-9.92969-4.71875-15.3418-3.37012
	C27.09058,26.52173,23.50824,28.91083,21,32.125V10h5c0.55225,0,1-0.44727,1-1s-0.44775-1-1-1h-5V2c0-0.55273-0.44775-1-1-1
	s-1,0.44727-1,1v6h-5c-0.55225,0-1,0.44727-1,1s0.44775,1,1,1h5v47c0,0.55273,0.44775,1,1,1s1-0.44727,1-1V35.7973
	c2.117-4.09314,6.05054-7.20428,10.57812-8.33344c4.79883-1.19824,10.11572-0.04297,13.54492,2.93848
	c3.50781,3.0498,4.81494,7.94531,3.17822,11.90625c-0.74805,1.80957-2.07666,3.46582-3.36182,5.06836l-0.35254,0.43945
	c-1.49512,1.87109-3.01123,3.89746-3.68115,6.26953c-0.78857,2.79492-0.12842,5.6084,1.72266,7.34082
	C43.69189,62.42188,45.23633,63,46.80566,63c0.08984,0,0.18066-0.00195,0.271-0.00586
	c1.43555-0.06152,2.68896-0.60938,3.5293-1.54297c0.36963-0.41016,0.33643-1.04297-0.07422-1.41211
	c-0.41064-0.37012-1.04346-0.33691-1.41211,0.07422c-0.47803,0.53125-1.23389,0.84473-2.12842,0.88281
	c-1.1167,0.03906-2.26611-0.34668-2.99609-1.03027c-1.55762-1.45703-1.62305-3.71289-1.16455-5.33691
	C43.39893,52.61621,44.78174,50.77637,46.14941,49.06445z"/>
</svg>
