<?xml version="1.0" encoding="utf-8"?>
<!-- Generator: Adobe Illustrator 24.2.3, SVG Export Plug-In . SVG Version: 6.00 Build 0)  -->
<svg version="1.1" id="Layer_1" xmlns="http://www.w3.org/2000/svg" xmlns:xlink="http://www.w3.org/1999/xlink" x="0px" y="0px"
	 viewBox="0 0 64 64" style="enable-background:new 0 0 64 64;" xml:space="preserve">
<style type="text/css">
	.st0{fill:#1A1A1A;}
</style>
<g>
	<path class="st0" d="M52.13086,38.26953c-2.51093-0.66357-5.41443,0.52411-7.14941,2.87885V12.01562
		C44.98145,6.49316,40.49805,2,34.98633,2c-3.95947,0-7.37793,2.32465-8.99518,5.67798C24.3736,4.32465,20.95459,2,16.99512,2
		C11.4834,2,7,6.49316,7,12.01562v41.07324c0,0.55273,0.44727,1,1,1s1-0.44727,1-1V12.01562C9,7.5957,12.58691,4,16.99512,4
		c4.40918,0,7.99609,3.5957,7.99609,8.01562v41.07324c0,0.55273,0.44727,1,1,1s1-0.44727,1-1V12.01562
		C26.99121,7.5957,30.57812,4,34.98633,4s7.99512,3.5957,7.99512,8.01562v36.59863c0,0.03918,0.01788,0.07239,0.02228,0.11041
		c0.00146,0.047-0.00061,0.09137,0.00116,0.13861c0.11328,3.03516,0.8916,5.80469,2.25098,8.00977
		c0.18164,0.29492,0.375,0.58008,0.57715,0.85449c-4.33008,2.07129-9.61523,2.25684-14.41406,0.24023
		c-0.50879-0.20996-1.09473,0.02344-1.30957,0.53418c-0.21387,0.50879,0.02539,1.0957,0.53418,1.30957
		c5.52051,2.32031,11.62793,2.00977,16.55273-0.53027c1.38574,1.3291,3.04492,2.27051,4.80078,2.69141
		C52.07617,61.99121,52.1543,62,52.23145,62c0.45215,0,0.86133-0.30859,0.97168-0.7666
		c0.12891-0.53711-0.20215-1.07715-0.73926-1.20605c-1.24219-0.29785-2.42969-0.92578-3.46777-1.81152
		c1.3916-0.93652,2.6543-2.07324,3.73926-3.39746c1.83203-2.23633,3.96973-5.25488,4.24121-8.77441
		C57.21777,42.91406,55.47168,39.15039,52.13086,38.26953z M54.98242,45.88965c-0.22852,2.96387-2.14746,5.65137-3.79395,7.66113
		c-1.0332,1.26074-2.24805,2.33008-3.5918,3.19434c-0.22656-0.29297-0.43945-0.59961-0.6377-0.9209
		c-1.17871-1.91211-1.85449-4.34473-1.95605-7.03613c-0.09863-2.62598,0.39551-4.75,1.4707-6.31152
		c0.88574-1.28809,2.52148-2.39355,4.20703-2.39355c0.31348,0,0.62793,0.03809,0.94043,0.12012
		C53.95215,40.81836,55.16113,43.57715,54.98242,45.88965z"/>
</g>
</svg>
