<?xml version="1.0" encoding="utf-8"?>
<!-- Generator: Adobe Illustrator 24.2.3, SVG Export Plug-In . SVG Version: 6.00 Build 0)  -->
<svg version="1.1" id="Layer_1" xmlns="http://www.w3.org/2000/svg" xmlns:xlink="http://www.w3.org/1999/xlink" x="0px" y="0px"
	 viewBox="0 0 64 64" style="enable-background:new 0 0 64 64;" xml:space="preserve">
<style type="text/css">
	.st0{fill:#1A1A1A;}
</style>
<g>
	<path class="st0" d="M8.41162,7.37939c3.0957-1.39893,5.7583-1.7334,7.91309-0.99463
		c2.18311,0.74756,3.98047,2.625,5.71826,4.44092c0.32227,0.33691,0.64355,0.67236,0.9668,1.00098
		c1.1626,1.18207,2.40796,2.10699,3.70227,2.79382C16.57141,17.0166,9,26.13788,9,37c0,12.68213,10.31787,23,23,23
		s23-10.31787,23-23c0-10.86176-7.57086-19.98273-17.71106-22.37927c1.29388-0.68695,2.53888-1.612,3.70129-2.79407
		c0.32373-0.3291,0.646-0.66553,0.96875-1.00293c1.7373-1.81494,3.53369-3.69189,5.71631-4.43945
		c2.15479-0.73682,4.81641-0.40381,7.91309,0.99512c0.50293,0.22754,1.09521,0.00391,1.32275-0.49951
		s0.00391-1.0957-0.49951-1.32275c-3.57568-1.61572-6.73291-1.97314-9.38477-1.06494
		c-2.64258,0.90527-4.60986,2.96094-6.5127,4.94873c-0.31641,0.33057-0.63232,0.66064-0.94971,0.9834
		C37.26416,12.76367,34.64941,14,32.00293,14c-2.6499,0-5.2666-1.23633-7.56738-3.57568
		c-0.31641-0.32227-0.63184-0.65137-0.94775-0.98145c-1.90332-1.98877-3.87158-4.04492-6.51465-4.9502
		c-2.65186-0.90967-5.80957-0.55127-9.38477,1.06445C7.08496,5.78418,6.86133,6.37646,7.08887,6.87988
		C7.31592,7.3833,7.91016,7.60791,8.41162,7.37939z M53,37c0,11.57959-9.42041,21-21,21s-21-9.42041-21-21s9.42041-21,21-21
		S53,25.42041,53,37z"/>
</g>
</svg>
