<?xml version="1.0" encoding="utf-8"?>
<!-- Generator: Adobe Illustrator 24.2.3, SVG Export Plug-In . SVG Version: 6.00 Build 0)  -->
<svg version="1.1" id="Layer_1" xmlns="http://www.w3.org/2000/svg" xmlns:xlink="http://www.w3.org/1999/xlink" x="0px" y="0px"
	 viewBox="0 0 64 64" style="enable-background:new 0 0 64 64;" xml:space="preserve">
<style type="text/css">
	.st0{fill:#1A1A1A;}
</style>
<g>
	<path class="st0" d="M52.81934,16.41895C52.63135,16.15625,52.32861,16,52.00537,16c-0.32275,0-0.62598,0.15625-0.81396,0.41895
		L42.00781,29.2793l-9.1875-12.86035c-0.37598-0.52637-1.25244-0.52539-1.62744,0L22.00879,29.2793l-9.19092-12.86035
		c-0.375-0.52539-1.25195-0.52539-1.62695,0l-10.00439,14c-0.32129,0.44922-0.21729,1.07324,0.23193,1.39453
		c0.44873,0.32031,1.07422,0.2168,1.39502-0.23242l9.19092-12.86133l9.19141,12.86133c0.37451,0.52539,1.25098,0.52441,1.62744,0
		l9.18359-12.86035l9.1875,12.86035c0.37451,0.52539,1.25098,0.52441,1.62744,0l9.18359-12.86035l9.18066,12.86035
		C61.38135,31.85449,61.68896,32,62.00098,32c0.20068,0,0.40381-0.06055,0.58008-0.18652
		c0.44971-0.32031,0.55371-0.94531,0.23291-1.39453L52.81934,16.41895z"/>
	<path class="st0" d="M52.81934,32.41895C52.63135,32.15625,52.32861,32,52.00537,32c-0.32275,0-0.62598,0.15625-0.81396,0.41895
		L42.00781,45.2793l-9.1875-12.86035c-0.37598-0.52637-1.25244-0.52539-1.62744,0L22.00879,45.2793l-9.19092-12.86035
		c-0.375-0.52539-1.25195-0.52539-1.62695,0l-10.00439,14c-0.32129,0.44922-0.21729,1.07324,0.23193,1.39453
		c0.44873,0.32129,1.07422,0.21777,1.39502-0.23242l9.19092-12.86133l9.19141,12.86133c0.37451,0.52539,1.25098,0.52441,1.62744,0
		l9.18359-12.86035l9.1875,12.86035c0.37451,0.52539,1.25098,0.52441,1.62744,0l9.18359-12.86035l9.18066,12.86035
		C61.38135,47.85449,61.68896,48,62.00098,48c0.20068,0,0.40381-0.06055,0.58008-0.18652
		c0.44971-0.32031,0.55371-0.94531,0.23291-1.39453L52.81934,32.41895z"/>
</g>
</svg>
