<?xml version="1.0" encoding="utf-8"?>
<!-- Generator: Adobe Illustrator 24.2.3, SVG Export Plug-In . SVG Version: 6.00 Build 0)  -->
<svg version="1.1" id="Layer_1" xmlns="http://www.w3.org/2000/svg" xmlns:xlink="http://www.w3.org/1999/xlink" x="0px" y="0px"
	 viewBox="0 0 64 64" style="enable-background:new 0 0 64 64;" xml:space="preserve">
<style type="text/css">
	.st0{fill:#1A1A1A;}
</style>
<g>
	<path class="st0" d="M41.06934,5.93506C39.20557,4.06006,36.71826,3.01758,34.06543,3c-0.02051,0-0.04053,0-0.06152,0
		c-2.5542,0-4.99756,1.03076-6.88574,2.90723c-0.85223,0.84656-1.5368,1.83405-2.05322,2.89722C23.47485,5.38318,20.01465,3,16,3
		C10.48584,3,6,7.48584,6,13v42c0,0.55273,0.44775,1,1,1s1-0.44727,1-1V13c0-4.41113,3.58887-8,8-8s8,3.58887,8,8v0.3252V55
		c0,0.55273,0.44775,1,1,1s1-0.44727,1-1V13.3252c0-2.2168,0.92139-4.40332,2.52734-5.99951C30.03857,5.82471,31.98145,5,34.00439,5
		c0.01611,0,0.03223,0,0.04834,0c2.12109,0.01367,4.10889,0.84668,5.60254,2.34961C41.16699,8.85156,42,10.8584,42,13v36
		c0,3.85938,3.14014,7,7,7h5.23792l-3.87805,3.23145c-0.42432,0.35352-0.48145,0.98438-0.12793,1.40918
		C50.42969,60.87793,50.71387,61,51.00049,61c0.22559,0,0.45264-0.07617,0.63965-0.23145l6-5
		c0.01111-0.00928,0.01526-0.02393,0.02594-0.03363c0.07312-0.06622,0.12756-0.14655,0.17853-0.23163
		c0.02002-0.03363,0.04883-0.06036,0.06476-0.09601C57.96545,55.28235,58,55.14594,58,55s-0.03455-0.28241-0.0907-0.40735
		c-0.01593-0.03552-0.04449-0.06219-0.06445-0.09564c-0.05103-0.08527-0.10553-0.16559-0.17877-0.23193
		c-0.01068-0.0097-0.01483-0.02435-0.02594-0.03363l-6-5c-0.42432-0.35254-1.05518-0.2959-1.4082,0.12793
		c-0.35352,0.4248-0.29639,1.05566,0.12793,1.40918L54.23792,54H49c-2.75684,0-5-2.24316-5-5V13
		C44,10.32178,42.95752,7.81104,41.06934,5.93506z"/>
</g>
</svg>
