<?xml version="1.0" encoding="utf-8"?>
<!-- Generator: Adobe Illustrator 24.2.3, SVG Export Plug-In . SVG Version: 6.00 Build 0)  -->
<svg version="1.1" id="Layer_1" xmlns="http://www.w3.org/2000/svg" xmlns:xlink="http://www.w3.org/1999/xlink" x="0px" y="0px"
	 viewBox="0 0 64 64" style="enable-background:new 0 0 64 64;" xml:space="preserve">
<style type="text/css">
	.st0{fill:#1A1A1A;}
</style>
<g>
	<path class="st0" d="M52,32c0-0.55273-0.44727-1-1-1h-8.9668c0.20428-9.93481,3.44305-19.79535,9.73535-27.36035
		c0.35352-0.4248,0.2959-1.05566-0.12891-1.4082c-0.42773-0.35449-1.05664-0.29395-1.4082,0.12891
		C43.64526,10.27838,40.25989,20.60193,40.05524,31H23.94476c-0.20465-10.39807-3.59003-20.72162-10.17621-28.63965
		c-0.35156-0.42383-0.9834-0.4834-1.4082-0.12891c-0.4248,0.35254-0.48242,0.9834-0.12891,1.4082
		c6.2923,7.565,9.53107,17.42554,9.73535,27.36035H13c-0.55273,0-1,0.44727-1,1s0.44727,1,1,1h8.9668
		c-0.20428,9.93481-3.44305,19.79535-9.73535,27.36035c-0.35352,0.4248-0.2959,1.05566,0.12891,1.4082
		C12.54785,61.92383,12.77441,62,12.99902,62c0.28711,0,0.57227-0.12305,0.76953-0.36035
		C20.35474,53.72162,23.74011,43.39807,23.94476,33h16.11047c0.20465,10.39807,3.59003,20.72162,10.17621,28.63965
		C50.42871,61.87695,50.71387,62,51.00098,62c0.22461,0,0.45215-0.07617,0.63867-0.23145
		c0.4248-0.35254,0.48242-0.9834,0.12891-1.4082C45.47626,52.79535,42.23749,42.93481,42.0332,33H51C51.55273,33,52,32.55273,52,32z
		"/>
</g>
</svg>
