<?xml version="1.0" encoding="utf-8"?>
<!-- Generator: Adobe Illustrator 24.3.0, SVG Export Plug-In . SVG Version: 6.00 Build 0)  -->
<svg version="1.1" id="Layer_1" xmlns="http://www.w3.org/2000/svg" xmlns:xlink="http://www.w3.org/1999/xlink" x="0px" y="0px"
	 viewBox="0 0 64 64" style="enable-background:new 0 0 64 64;" xml:space="preserve">
<style type="text/css">
	.st0{fill:#1A1A1A;}
</style>
<path class="st0" d="M32,1C18.7666,1,8,11.7666,8,25c0,12.89807,10.22894,23.44794,23,23.97461V55h-5c-0.55225,0-1,0.44727-1,1
	s0.44775,1,1,1h5v5c0,0.55273,0.44775,1,1,1s1-0.44727,1-1v-5h5c0.55225,0,1-0.44727,1-1s-0.44775-1-1-1h-5v-6.02539
	C45.77106,48.44794,56,37.89807,56,25C56,11.7666,45.2334,1,32,1z M32,47c-12.13086,0-22-9.86914-22-22S19.86914,3,32,3
	s22,9.86914,22,22S44.13086,47,32,47z"/>
</svg>
