<?xml version="1.0" encoding="utf-8"?>
<!-- Generator: Adobe Illustrator 24.3.0, SVG Export Plug-In . SVG Version: 6.00 Build 0)  -->
<svg version="1.1" id="Layer_1" xmlns="http://www.w3.org/2000/svg" xmlns:xlink="http://www.w3.org/1999/xlink" x="0px" y="0px"
	 viewBox="0 0 64 64" style="enable-background:new 0 0 64 64;" xml:space="preserve">
<style type="text/css">
	.st0{fill:#1A1A1A;}
</style>
<path class="st0" d="M34,34c8.82227,0,16-7.17773,16-16S42.82227,2,34,2H15c-0.55225,0-1,0.44727-1,1v30v28c0,0.55273,0.44775,1,1,1
	h34c0.55225,0,1-0.44727,1-1s-0.44775-1-1-1H16V34H34z M48,18c0,7.71973-6.28027,14-14,14H16V4h18C41.71973,4,48,10.28027,48,18z"/>
</svg>
