<?xml version="1.0" encoding="utf-8"?>
<!-- Generator: Adobe Illustrator 24.2.3, SVG Export Plug-In . SVG Version: 6.00 Build 0)  -->
<svg version="1.1" id="Layer_1" xmlns="http://www.w3.org/2000/svg" xmlns:xlink="http://www.w3.org/1999/xlink" x="0px" y="0px"
	 viewBox="0 0 64 64" style="enable-background:new 0 0 64 64;" xml:space="preserve">
<style type="text/css">
	.st0{fill:#1A1A1A;}
</style>
<g>
	<path class="st0" d="M3,54h58c0.55225,0,1-0.44727,1-1s-0.44775-1-1-1H3c-0.55225,0-1,0.44727-1,1S2.44775,54,3,54z"/>
	<path class="st0" d="M3,42h15.58984c0.39404,0,0.75146-0.23145,0.9126-0.5918c0.16113-0.35938,0.0957-0.78027-0.16699-1.07422
		C16.53955,37.20312,15,33.17871,15,29c0-9.37402,7.62598-17,17-17s17,7.62598,17,17c0,4.17871-1.53955,8.20312-4.33545,11.33398
		c-0.2627,0.29395-0.32812,0.71484-0.16699,1.07422C44.65869,41.76855,45.01611,42,45.41016,42H61c0.55225,0,1-0.44727,1-1
		s-0.44775-1-1-1H47.48535C49.76416,36.79297,51,32.95898,51,29c0-10.47656-8.52344-19-19-19s-19,8.52344-19,19
		c0,3.95898,1.23584,7.79297,3.51465,11H3c-0.55225,0-1,0.44727-1,1S2.44775,42,3,42z"/>
</g>
</svg>
