<?xml version="1.0" encoding="utf-8"?>
<!-- Generator: Adobe Illustrator 24.3.0, SVG Export Plug-In . SVG Version: 6.00 Build 0)  -->
<svg version="1.1" id="Layer_1" xmlns="http://www.w3.org/2000/svg" xmlns:xlink="http://www.w3.org/1999/xlink" x="0px" y="0px"
	 viewBox="0 0 64 64" style="enable-background:new 0 0 64 64;" xml:space="preserve">
<style type="text/css">
	.st0{fill:#1A1A1A;}
</style>
<path class="st0" d="M33,27.05066V16.4248l10.28223,10.28223C43.47754,26.90234,43.7334,27,43.98926,27
	s0.51172-0.09766,0.70703-0.29297c0.39062-0.39062,0.39062-1.02344,0-1.41406L33.40332,14L44.69629,2.70703
	c0.39062-0.39062,0.39062-1.02344,0-1.41406s-1.02344-0.39062-1.41406,0L33,11.5752V2c0-0.55273-0.44727-1-1-1s-1,0.44727-1,1
	v11.94482c-0.00214,0.03748-0.00214,0.07288,0,0.11035v12.99548C21.54114,27.57434,14,35.41272,14,45c0,9.9248,8.0752,18,18,18
	s18-8.0752,18-18C50,35.41272,42.45886,27.57434,33,27.05066z M32,61c-8.82227,0-16-7.17773-16-16s7.17773-16,16-16
	s16,7.17773,16,16S40.82227,61,32,61z"/>
</svg>
