<?xml version="1.0" encoding="utf-8"?>
<!-- Generator: Adobe Illustrator 24.2.3, SVG Export Plug-In . SVG Version: 6.00 Build 0)  -->
<svg version="1.1" id="Layer_1" xmlns="http://www.w3.org/2000/svg" xmlns:xlink="http://www.w3.org/1999/xlink" x="0px" y="0px"
	 viewBox="0 0 64 64" style="enable-background:new 0 0 64 64;" xml:space="preserve">
<style type="text/css">
	.st0{fill:#1A1A1A;}
</style>
<g>
	<path class="st0" d="M54.55566,6C43.77197,6,34.896,20.93115,32,41.9751C29.104,20.93115,20.22803,6,9.44434,6
		C5.33936,6,2,9.54248,2,13.89648c0,0.55225,0.44775,1,1,1s1-0.44775,1-1C4,10.64502,6.44238,8,9.44434,8
		C21.33008,8,31,29.98145,31,57c0,0.55225,0.44775,1,1,1s1-0.44775,1-1c0-27.01855,9.66992-49,21.55566-49
		C57.55762,8,60,10.64502,60,13.89648c0,0.55225,0.44775,1,1,1s1-0.44775,1-1C62,9.54248,58.66064,6,54.55566,6z"/>
</g>
</svg>
