<?xml version="1.0" encoding="utf-8"?>
<!-- Generator: Adobe Illustrator 24.3.0, SVG Export Plug-In . SVG Version: 6.00 Build 0)  -->
<svg version="1.1" id="Layer_1" xmlns="http://www.w3.org/2000/svg" xmlns:xlink="http://www.w3.org/1999/xlink" x="0px" y="0px"
	 viewBox="0 0 64 64" style="enable-background:new 0 0 64 64;" xml:space="preserve">
<style type="text/css">
	.st0{fill:#1A1A1A;}
</style>
<path class="st0" d="M32,1C14.90625,1,1,14.90625,1,32s13.90625,31,31,31s31-13.90625,31-31S49.09375,1,32,1z M60.97467,31H33
	V3.02533C48.19556,3.54388,60.45612,15.80444,60.97467,31z M31,3.02533V31H3.02533C3.54388,15.80444,15.80444,3.54388,31,3.02533z
	 M3.02533,33H31v27.97467C15.80444,60.45612,3.54388,48.19556,3.02533,33z M33,60.97467V33h27.97467
	C60.45612,48.19556,48.19556,60.45612,33,60.97467z"/>
</svg>
