<?xml version="1.0" encoding="utf-8"?>
<!-- Generator: Adobe Illustrator 24.3.0, SVG Export Plug-In . SVG Version: 6.00 Build 0)  -->
<svg version="1.1" id="Layer_1" xmlns="http://www.w3.org/2000/svg" xmlns:xlink="http://www.w3.org/1999/xlink" x="0px" y="0px"
	 viewBox="0 0 64 64" style="enable-background:new 0 0 64 64;" xml:space="preserve">
<style type="text/css">
	.st0{fill:#1A1A1A;}
</style>
<path class="st0" d="M11.65234,59.23047C11.26025,59.37549,11,59.74951,11,60.16797s0.26025,0.79248,0.65234,0.9375
	C15.04541,62.36279,18.61279,63,22.25635,63C39.2085,63,53,49.09326,53,32S39.2085,1,22.25635,1
	c-3.64355,0-7.21094,0.63721-10.604,1.89453C11.26025,3.03955,11,3.41357,11,3.83203s0.26025,0.79248,0.65234,0.9375
	C22.91797,8.94434,30.4873,19.88721,30.4873,32S22.91797,55.05566,11.65234,59.23047z M32.4873,32
	c0-12.0166-6.97363-22.95752-17.60986-28.03564C17.27344,3.32373,19.74561,3,22.25635,3C38.10547,3,51,16.00928,51,32
	S38.10547,61,22.25635,61c-2.51074,0-4.98291-0.32373-7.37891-0.96436C25.51367,54.95752,32.4873,44.0166,32.4873,32z"/>
</svg>
