<?xml version="1.0" encoding="utf-8"?>
<!-- Generator: Adobe Illustrator 24.2.3, SVG Export Plug-In . SVG Version: 6.00 Build 0)  -->
<svg version="1.1" id="Layer_1" xmlns="http://www.w3.org/2000/svg" xmlns:xlink="http://www.w3.org/1999/xlink" x="0px" y="0px"
	 viewBox="0 0 64 64" style="enable-background:new 0 0 64 64;" xml:space="preserve">
<style type="text/css">
	.st0{fill:#1A1A1A;}
</style>
<g>
	<path class="st0" d="M17,62c8.27148,0,15-6.729,15-15.00049c0-2.49341-0.62036-4.84149-1.70117-6.91254
		c-0.01654-0.05493-0.01825-0.11163-0.04492-0.16461c-2.48438-4.93945-4.97363-10.23682-5.74512-15.90918
		c-0.83008-6.09912,0.62207-11.72314,3.9834-15.4292c3.0918-3.40771,7.84863-5.13672,12.4043-4.52002
		c4.55859,0.62061,8.67578,3.55908,10.74414,7.66895c2.08887,4.14893,2.25098,9.61865,0.48242,16.25635
		c-0.53711,2.01318-1.29004,4.02197-2.08789,6.14941C48.1748,39.10156,46.25,44.23389,47.15234,49.60742
		c0.47266,2.81055,1.93457,5.10742,4.01172,6.30176c1.15039,0.66211,2.49316,0.99268,3.98828,0.99268
		c1.58594,0,3.34375-0.37207,5.22559-1.11523c0.51367-0.20312,0.76562-0.78369,0.5625-1.29736s-0.7832-0.76416-1.29688-0.56299
		c-2.1416,0.84619-5.17773,1.57568-7.48242,0.24951c-1.53418-0.88184-2.66895-2.71387-3.03613-4.8999
		c-0.81348-4.84326,1.01465-9.71924,2.7832-14.43506c0.7793-2.0791,1.58496-4.22852,2.14648-6.33691
		c1.89941-7.125,1.68848-13.07031-0.62695-17.67041c-2.36035-4.68994-7.05859-8.04346-12.26172-8.75098
		c-5.20117-0.70605-10.62598,1.26904-14.15527,5.15771c-3.75879,4.14502-5.39355,10.35645-4.48438,17.04248
		c0.49829,3.66138,1.65771,7.13062,3.0672,10.44061c-2.43658-1.71094-5.39667-2.7243-8.59357-2.7243
		c-8.27148,0-15,6.729-15,15.00049S8.72852,62,17,62z M17,33.99902c7.16797,0,13,5.83203,13,13.00049S24.16797,60,17,60
		S4,54.16797,4,46.99951S9.83203,33.99902,17,33.99902z"/>
</g>
</svg>
